<svg id="Capa_1" data-name="Capa 1" xmlns="http://www.w3.org/2000/svg" xmlns:xlink="http://www.w3.org/1999/xlink" viewBox="0 0 512 512"><defs><style>.cls-1{fill:none;}.cls-2,.cls-8{fill:url(#Degradado_sin_nombre_43);}.cls-2,.cls-3,.cls-4{clip-rule:evenodd;}.cls-11,.cls-3{fill:url(#linear-gradient);}.cls-14,.cls-4{fill:url(#Degradado_sin_nombre_5);}.cls-5{clip-path:url(#clip-path);}.cls-6{fill:url(#Degradado_sin_nombre_17);}.cls-7{fill:#c6e9ff;}.cls-11,.cls-14,.cls-8{fill-rule:evenodd;}.cls-9{clip-path:url(#clip-path-2);}.cls-10{fill:url(#Degradado_sin_nombre_43-3);}.cls-12{clip-path:url(#clip-path-3);}.cls-13{fill:url(#linear-gradient-3);}.cls-15{clip-path:url(#clip-path-4);}.cls-16{fill:url(#Degradado_sin_nombre_7);}</style><linearGradient id="Degradado_sin_nombre_43" x1="812.4" y1="628.47" x2="-1262.93" y2="198.02" gradientUnits="userSpaceOnUse"><stop offset="0" stop-color="orange"/><stop offset="0.1" stop-color="#ffb300"/><stop offset="0.31" stop-color="#ffce00"/><stop offset="0.53" stop-color="#ffe100"/><stop offset="0.76" stop-color="#ffec00"/><stop offset="1" stop-color="#fff000"/></linearGradient><linearGradient id="linear-gradient" x1="91.73" y1="755.6" x2="592.61" y2="238.61" gradientUnits="userSpaceOnUse"><stop offset="0" stop-color="#0131b7"/><stop offset="0.17" stop-color="#0235b9"/><stop offset="0.35" stop-color="#0442bf"/><stop offset="0.54" stop-color="#0756ca"/><stop offset="0.72" stop-color="#0c73d8"/><stop offset="0.91" stop-color="#1198eb"/><stop offset="1" stop-color="#15aef6"/></linearGradient><linearGradient id="Degradado_sin_nombre_5" x1="-378.4" y1="542.28" x2="634.25" y2="542.28" gradientUnits="userSpaceOnUse"><stop offset="0.01" stop-color="#e2b7ff"/><stop offset="0.31" stop-color="#ebc9ad"/><stop offset="0.79" stop-color="#f9e532"/><stop offset="1" stop-color="#fff000"/></linearGradient><clipPath id="clip-path"><rect class="cls-1" x="2" y="2" width="508" height="508" rx="46.49" transform="translate(512) rotate(90)"/></clipPath><radialGradient id="Degradado_sin_nombre_17" cx="16526.23" cy="4314.76" r="599.67" gradientTransform="translate(16581.73 4748.98) rotate(180)" gradientUnits="userSpaceOnUse"><stop offset="0" stop-color="#0286ff"/><stop offset="0.27" stop-color="#086cd0"/><stop offset="0.89" stop-color="#162a59"/><stop offset="1" stop-color="#191e43"/></radialGradient><clipPath id="clip-path-2"><path class="cls-2" d="M336.32,379.93V533.51H-410.57V258.13c213.51-97.64,525,244.31,746.89,121.8"/></clipPath><linearGradient id="Degradado_sin_nombre_43-3" x1="774.92" y1="542.31" x2="-1293.43" y2="113.31" xlink:href="#Degradado_sin_nombre_43"/><clipPath id="clip-path-3"><path class="cls-3" d="M811.18,241.52V535H-58.32V388.49c246,149.12,608.74-181.55,869.5-147"/></clipPath><linearGradient id="linear-gradient-3" x1="47.02" y1="712.28" x2="547.9" y2="195.3" xlink:href="#linear-gradient"/><clipPath id="clip-path-4"><path class="cls-4" d="M634.25,446.19V677.53H-378.4V407c286.5,368.62,709-120,1012.65,39.17"/></clipPath><linearGradient id="Degradado_sin_nombre_7" x1="-378.4" y1="531.32" x2="634.25" y2="531.32" gradientUnits="userSpaceOnUse"><stop offset="0.01" stop-color="#a90000"/><stop offset="0.45" stop-color="#d12a1d"/><stop offset="1" stop-color="#ff5b3f"/></linearGradient></defs><g class="cls-5"><rect class="cls-6" x="-3.86" y="-5.81" width="520.75" height="520.75"/><path class="cls-7" d="M282.69,205.24c.85-1.05,1.46-1.84,2.11-2.6Q300.23,184.3,315.67,166c4.84-5.78,4.8-12.48,0-17.06s-11.5-4.3-17,.83L293,155c0-1.68,0-2.64,0-3.61q-.11-20.53-.24-41.07a27.43,27.43,0,0,0-.26-3.84,11.66,11.66,0,0,0-9.27-10c-2.35-.47-4.87-.08-7.48-.08-1.28-4.83-4.85-7.48-9.27-9.26H261c-4.53,1.77-8,4.59-9.42,9.38-11.24-1.53-16.69,3.21-16.89,14.38a20.76,20.76,0,0,1-.22,2.07c-10.28-1.54-16.35,3.68-16.35,13.85,0,19.48.1,39-.06,58.43-.06,7.55.68,14.65,6.66,20.29-5.32,3.89-6.65,9.15-6.64,15.18.07,47.22,0,139.13,0,186.35,0,.92,0,1.85,0,2.76.23,2.6,1.9,4.26,4.18,4.24s3.9-1.72,4-4.33c.05-.92,0-1.84,0-2.76V235.6h55V407.73c0,4.27,1.27,6.24,4,6.33s4.23-2,4.23-6.37c0-46.76,0-138.2.06-185C289.73,215.83,289.14,209.48,282.69,205.24ZM226.44,124.5a4,4,0,0,1,4.13-3.68,4,4,0,0,1,4,4c.1,5.51,0,11,.06,16.54,0,4.42,1.36,6.44,4.27,6.37s4-2,4-6.3q0-15.44,0-30.87a14.33,14.33,0,0,1,.2-3,4.06,4.06,0,0,1,8,.31,21.07,21.07,0,0,1,.1,2.75q0,15.44,0,30.87a14.33,14.33,0,0,0,.2,3,4,4,0,0,0,7.92-.17,19,19,0,0,0,.13-3q0-19.71,0-39.42a16.9,16.9,0,0,1,.16-3,4.06,4.06,0,0,1,8,0,17.88,17.88,0,0,1,.16,3q0,19.71,0,39.41a16.35,16.35,0,0,0,.19,3.29c.44,2.06,1.94,3.47,3.91,3a7.6,7.6,0,0,0,3.82-2.87c.57-.71.33-2.12.33-3.21q0-15.44,0-30.87a17.83,17.83,0,0,1,.15-3,4,4,0,0,1,7.87-.37,12.78,12.78,0,0,1,.31,3.27q.16,24,.29,48c0,.83,0,1.66.06,2.48a5.74,5.74,0,0,0,3.65,5.08,5.48,5.48,0,0,0,6.13-1.16c3.31-3,6.54-6.2,9.82-9.27,2.22-2.07,4-2.3,5.51-.68,1.79,1.86,1.13,3.62-.33,5.36q-16,19-31.9,38a12.65,12.65,0,0,1-10.21,4.54c-9.37,0-18.75,0-28.12,0-7.71,0-13-5.28-13-13-.08-10.57,0-21.13,0-31.7q0-15.57,0-31.15A13.55,13.55,0,0,1,226.44,124.5Zm54.9,102.59H226.21c.18-3.76.09-7.5.62-11.14a6,6,0,0,1,6-4.76q21-.1,42.1,0a6.43,6.43,0,0,1,6.36,6.06C281.49,220.44,281.34,223.64,281.34,227.09Z"/><path class="cls-7" d="M189.4,287.75c3.87-4.07,6-8.62,6-14q0-31.29,0-62.58a11.77,11.77,0,0,0-10.77-11.89,34.67,34.67,0,0,0-4.87.19c.13-4.61-.07-9.11-3.66-12.55S168.25,183,163.67,184c-2-5.37-5.6-8.68-11.3-8.86-6.22-.2-10,3.35-12.17,8.82-10.06-1.65-15.91,3.3-16,13.31q-.15,19.56-.38,39.14c0,.75-.13,1.49-.23,2.62-2.18-2-3.94-3.79-5.81-5.4a11,11,0,0,0-12.08-2c-3.69,1.52-5.54,4.63-6.79,8.2v4.41a38.55,38.55,0,0,0,3.25,5.68c5.63,6.91,11.41,13.69,17.14,20.52,4.71,5.61,9.44,11.22,14.29,17-5.31,3.77-6.64,9-6.6,15,.14,20.22.05,85.11.05,105.32a14,14,0,0,0,.09,2.75,3.89,3.89,0,0,0,4,3.5c2.34,0,3.74-1.33,4.14-3.63a15.62,15.62,0,0,0,.06-2.47V316.59h51.87v3.13c0,14.51,0,73.71,0,88.23a11,11,0,0,0,.32,3.25,3.74,3.74,0,0,0,4.2,2.82,3.84,3.84,0,0,0,3.66-3.51,18.11,18.11,0,0,0,.08-2.76c0-19.66-.1-84,.05-103.66C195.55,297.8,195.07,291.93,189.4,287.75Zm-2.23,19c0,.35-.1.7-.18,1.26H135.4c0-3.21-.22-6.32.06-9.38a5.93,5.93,0,0,1,6.06-5.32q19.68-.09,39.36,0c3.69,0,6.14,2.58,6.27,6.28C187.24,302,187.18,304.4,187.17,306.78Zm0-83.28v19.57c0,9.74,0,19.48,0,29.22,0,8-4.68,12.72-12.62,12.74-8.73,0-17.46,0-26.18,0a12.2,12.2,0,0,1-9.88-4.58q-14.94-17.86-29.94-35.66c-1.31-1.56-2.13-3.22-.46-4.87s3.47-.93,5,.59c2.7,2.62,5.49,5.15,8.18,7.79,2,2,4.24,3.28,7.15,2s3.59-3.57,3.61-6.49c.08-15.53.26-31,.4-46.58a16.13,16.13,0,0,1,.06-2.2,3.43,3.43,0,0,1,3.75-3.24,3.32,3.32,0,0,1,3.52,3.17,32.94,32.94,0,0,1,.1,3.85c0,9.38,0,18.75,0,28.12,0,1.09-.21,2.51.37,3.2,1,1.22,2.45,2.57,3.89,2.81,1.91.31,3.45-1.08,3.84-3.17a16.85,16.85,0,0,0,.15-3q0-18.75,0-37.48a15.19,15.19,0,0,1,.2-3c.4-2,1.88-3.27,3.74-2.79,1.32.34,2.48,1.77,3.43,2.95.41.51.13,1.59.13,2.42q0,19,0,38c0,.73,0,1.47,0,2.2a4.22,4.22,0,0,0,4.12,4,4.1,4.1,0,0,0,4.07-4c.13-3.21.05-6.43.05-9.65,0-7.62,0-15.25,0-22.87,0-3.17,1.27-4.74,3.71-4.76s3.79,1.59,3.8,4.7c0,9.92,0,19.85,0,29.77,0,.92,0,1.84,0,2.75a4.14,4.14,0,0,0,4,4.09,4.09,4.09,0,0,0,4.13-4c.18-3.12.07-6.25.09-9.37,0-2.85,0-5.7,0-8.54a3.55,3.55,0,0,1,3.61-3.75c2-.16,3.68,1.56,3.73,3.91C187.23,215.42,187.18,219.46,187.18,223.5Z"/><path class="cls-7" d="M405.46,249.92c4.39-5.24,4.2-11.77-.36-16.12s-11.09-4.16-16.09.49l-5.13,4.76c-.07-1.3-.14-2.08-.15-2.87q-.19-19.56-.38-39.13c-.08-9.81-6.14-14.87-16-13.08-2.12-5.5-5.83-8.89-11.79-8.87s-9.61,3.47-11.72,8.94c-4.73-1.19-9-.47-12.52,3s-3.63,8-3.55,12.54c-9.79-2-16,5-15.79,14,.46,18.08.24,36.19.08,54.29-.06,7.31.21,14.35,6.18,19.89-5.24,4-6.23,9.23-6.18,15.14.15,20,.06,84.73.06,104.75a23.08,23.08,0,0,0,.05,2.76A3.84,3.84,0,0,0,316,414a3.76,3.76,0,0,0,4.13-2.93,10.62,10.62,0,0,0,.27-3c0-14.61,0-73.89,0-88.5v-3.16h4.12q17.24,0,34.45,0c3.45,0,5.64-2.29,4.88-5.06-.71-2.55-2.63-3.22-5.1-3.21-11.76,0-23.52,0-35.28,0h-3.07c0-2.69,0-5,0-7.27,0-5.3,2.28-7.59,7.51-7.59q18.19,0,36.38,0c5.75,0,8,2.23,8,8V407.72a15.75,15.75,0,0,0,.07,2.75,4.08,4.08,0,0,0,8.06.26,11.33,11.33,0,0,0,.13-2.74c0-20.12-.09-84.91.07-105,.05-6.21-1.16-11.63-6.61-15.55.85-1,1.54-1.85,2.24-2.69Q390.85,267.32,405.46,249.92Zm-36.64,30.81a11.74,11.74,0,0,1-9.45,4.3c-9,0-18,.05-27,0-7.09,0-11.93-4.91-12-12-.05-10.11,0-20.21,0-30.32V213.22c0-.73,0-1.47,0-2.2a3.46,3.46,0,0,1,3.54-3.51,3.38,3.38,0,0,1,3.77,3.52c.12,3.3.06,6.61.07,9.92,0,2.48-.05,5,0,7.44.09,2.92,1.87,4.82,4.27,4.73s3.93-1.89,4-4.72c.06-6.25,0-12.49,0-18.74,0-4.32,0-8.64,0-12.95,0-3.3,1.4-5,3.89-4.9s3.62,1.65,3.63,4.84q0,15.16,0,30.32a15.75,15.75,0,0,0,.06,2.48,4.1,4.1,0,0,0,8.13.12,13.55,13.55,0,0,0,.08-2.47q0-19.15,0-38.31c0-.83-.27-1.93.15-2.42,1-1.16,2.26-2.76,3.47-2.8s2.64,1.45,3.58,2.6c.52.64.29,1.94.3,2.94q0,18.88,0,37.76c0,1-.28,2.3.22,3,.95,1.28,2.32,3,3.62,3.06s2.93-1.38,4-2.55c.6-.66.42-2.1.42-3.19,0-9.56,0-19.11,0-28.67,0-.73,0-1.47,0-2.2.09-3,1.35-4.48,3.7-4.48s3.68,1.52,3.72,4.45c.11,9.28.18,18.56.27,27.83.06,6.71.16,13.42.15,20.12,0,2.86.95,5,3.68,6.16s4.8.11,6.73-1.74c2.84-2.74,5.75-5.42,8.59-8.17,1.48-1.43,3.1-2.22,4.83-.66s1.14,3.25-.2,4.85Q384,262.68,368.82,280.73Z"/><path class="cls-8" d="M336.32,379.93V533.51H-410.57V258.13c213.51-97.64,525,244.31,746.89,121.8"/><g class="cls-9"><rect class="cls-10" x="-467.39" y="175.59" width="746.89" height="373.02"/></g><path class="cls-11" d="M811.18,241.52V535H-58.32V388.49c246,149.12,608.74-181.55,869.5-147"/><g class="cls-12"><rect class="cls-13" x="-58.32" y="206.94" width="869.49" height="330.67"/></g><path class="cls-14" d="M634.25,446.19V677.53H-378.4V407c286.5,368.62,709-120,1012.65,39.17"/><g class="cls-15"><rect class="cls-16" x="-378.4" y="286.99" width="1012.66" height="488.65"/></g></g></svg>